<?xml version="1.0" standalone="no"?>
<!DOCTYPE svg PUBLIC "-//W3C//DTD SVG 1.1//EN"
  "http://www.w3.org/Graphics/SVG/1.1/DTD/svg11.dtd">
<svg width="135.0423240661621mm" height="39.27496719360351mm" viewBox="-85.52116394042969 35.32083511352538 135.0423240661621 39.27496719360351" xmlns="http://www.w3.org/2000/svg" version="1.1">
	<title>svgOutput</title>
	<desc>made with tinkercad</desc>
<path d="M -83.65519714355469 36.48653411865234 L -83 36.37799072265624 L -82.65499877929688 36.32083511352538 L -81.91999816894531 36.32083511352538 L -65.53600311279297 36.32083511352538 L 0 36.32083511352538 L 32.768001556396484 36.32083511352538 L 43 36.32083511352538 L 46.65496063232422 36.32083511352538 L 46.654998779296875 36.32083511352538 L 48.52116012573242 36.63000106811523 L 48.52116012573242 36.63000488281249 L 48.52116012573242 49.15200042724608 L 48.52116012573242 65.53600311279295 L 48.52116012573242 71.99400329589842 L 48.52116012573242 73.28700256347655 L 47.65519332885742 73.43046569824217 L 46.654998779296875 73.59580230712889 L 43 73.59580230712889 L 32.768001556396484 73.59580230712889 L 0 73.59580230712889 L -65.53600311279297 73.59580230712889 L -81.91999816894531 73.59580230712889 L -82.65499877929688 73.59580230712889 L -83 73.53871154785155 L -84.52116394042969 73.28700256347655 L -84.52116394042969 71.99600219726561 L -84.52116394042969 65.53600311279295 L -84.52116394042969 49.15200042724608 L -84.52116394042969 36.63000106811523 L -83.65519714355469 36.48653411865234 z" fill="none" stroke="rgb(255,0,0)" stroke-width="0.001mm" />
</svg>